<?xml version="1.0" encoding="utf-8"?>
<!-- Generated by Mocodo 4.2.8 -->
<svg width="2100" height="2100" viewBox="0 0 2100 2100" xmlns="http://www.w3.org/2000/svg">
<rect x="0" y="0" width="2100" height="2100" fill="#ffffbf" stroke="none" stroke-width="0"/>

<!-- Association MAP1 -->
<g>
	<line x1="1000" y1="1000" x2="300" y2="800" stroke="#66bd63" stroke-width="2"/>
	<line x1="300" y1="650" x2="300" y2="800" stroke="#66bd63" stroke-width="2"/>
	<g>
		<path d="M307 775 a14 14 90 0 1 14 14 V800 h-42 V789 a14 14 90 0 1 14 -14" fill="#a6d96a" stroke="#a6d96a" stroke-width="0"/>
		<path d="M321 800 v11 a14 14 90 0 1 -14 14 H293 a14 14 90 0 1 -14 -14 V800 H42" fill="#d9ef8b" stroke="#d9ef8b" stroke-width="0"/>
		<rect x="279" y="775" width="42" height="50" fill="none" rx="14" stroke="#66bd63" stroke-width="2"/>
		<line x1="279" y1="800" x2="321" y2="800" stroke="#66bd63" stroke-width="1"/>
		<text x="287" y="792.75" fill="#000000" font-family="Verdana" font-size="12">MAP</text>
	</g>
	<text x="929" y="1002.21" fill="#d73027" font-family="Verdana" font-size="12">     </text>
	<text x="305" y="692" fill="#d73027" font-family="Verdana" font-size="12">     </text>
</g>

<!-- Association MAP2 -->
<g>
	<line x1="1000" y1="1000" x2="500" y2="800" stroke="#66bd63" stroke-width="2"/>
	<line x1="500" y1="650" x2="500" y2="800" stroke="#66bd63" stroke-width="2"/>
	<g>
		<path d="M507 775 a14 14 90 0 1 14 14 V800 h-42 V789 a14 14 90 0 1 14 -14" fill="#a6d96a" stroke="#a6d96a" stroke-width="0"/>
		<path d="M521 800 v11 a14 14 90 0 1 -14 14 H493 a14 14 90 0 1 -14 -14 V800 H42" fill="#d9ef8b" stroke="#d9ef8b" stroke-width="0"/>
		<rect x="479" y="775" width="42" height="50" fill="none" rx="14" stroke="#66bd63" stroke-width="2"/>
		<line x1="479" y1="800" x2="521" y2="800" stroke="#66bd63" stroke-width="1"/>
		<text x="487" y="792.75" fill="#000000" font-family="Verdana" font-size="12">MAP</text>
	</g>
	<text x="959.37" y="975" fill="#d73027" font-family="Verdana" font-size="12">     </text>
	<text x="505" y="692" fill="#d73027" font-family="Verdana" font-size="12">     </text>
</g>

<!-- Association EVENT1 -->
<g>
	<line x1="1000" y1="1000" x2="700" y2="800" stroke="#66bd63" stroke-width="2"/>
	<line x1="700" y1="650" x2="700" y2="800" stroke="#66bd63" stroke-width="2"/>
	<g>
		<path d="M714 775 a14 14 90 0 1 14 14 V800 h-56 V789 a14 14 90 0 1 14 -14" fill="#a6d96a" stroke="#a6d96a" stroke-width="0"/>
		<path d="M728 800 v11 a14 14 90 0 1 -14 14 H686 a14 14 90 0 1 -14 -14 V800 H56" fill="#d9ef8b" stroke="#d9ef8b" stroke-width="0"/>
		<rect x="672" y="775" width="56" height="50" fill="none" rx="14" stroke="#66bd63" stroke-width="2"/>
		<line x1="672" y1="800" x2="728" y2="800" stroke="#66bd63" stroke-width="1"/>
		<text x="680" y="792.75" fill="#000000" font-family="Verdana" font-size="12">EVENT</text>
	</g>
	<text x="974.39" y="975" fill="#d73027" font-family="Verdana" font-size="12">     </text>
	<text x="705" y="735" fill="#d73027" font-family="Verdana" font-size="12">     </text>
</g>

<!-- Association EVENT2 -->
<g>
	<line x1="1000" y1="1000" x2="900" y2="800" stroke="#66bd63" stroke-width="2"/>
	<line x1="900" y1="650" x2="900" y2="800" stroke="#66bd63" stroke-width="2"/>
	<g>
		<path d="M914 775 a14 14 90 0 1 14 14 V800 h-56 V789 a14 14 90 0 1 14 -14" fill="#a6d96a" stroke="#a6d96a" stroke-width="0"/>
		<path d="M928 800 v11 a14 14 90 0 1 -14 14 H886 a14 14 90 0 1 -14 -14 V800 H56" fill="#d9ef8b" stroke="#d9ef8b" stroke-width="0"/>
		<rect x="872" y="775" width="56" height="50" fill="none" rx="14" stroke="#66bd63" stroke-width="2"/>
		<line x1="872" y1="800" x2="928" y2="800" stroke="#66bd63" stroke-width="1"/>
		<text x="880" y="792.75" fill="#000000" font-family="Verdana" font-size="12">EVENT</text>
	</g>
	<text x="992.59" y="975" fill="#d73027" font-family="Verdana" font-size="12">     </text>
	<text x="905" y="718" fill="#d73027" font-family="Verdana" font-size="12">     </text>
</g>

<!-- Association EVENT3 -->
<g>
	<line x1="1000" y1="1000" x2="1100" y2="800" stroke="#66bd63" stroke-width="2"/>
	<line x1="1100" y1="650" x2="1100" y2="800" stroke="#66bd63" stroke-width="2"/>
	<g>
		<path d="M1114 775 a14 14 90 0 1 14 14 V800 h-56 V789 a14 14 90 0 1 14 -14" fill="#a6d96a" stroke="#a6d96a" stroke-width="0"/>
		<path d="M1128 800 v11 a14 14 90 0 1 -14 14 H1086 a14 14 90 0 1 -14 -14 V800 H56" fill="#d9ef8b" stroke="#d9ef8b" stroke-width="0"/>
		<rect x="1072" y="775" width="56" height="50" fill="none" rx="14" stroke="#66bd63" stroke-width="2"/>
		<line x1="1072" y1="800" x2="1128" y2="800" stroke="#66bd63" stroke-width="1"/>
		<text x="1080" y="792.75" fill="#000000" font-family="Verdana" font-size="12">EVENT</text>
	</g>
	<text x="985.41" y="975" fill="#d73027" font-family="Verdana" font-size="12">     </text>
	<text x="1105" y="692" fill="#d73027" font-family="Verdana" font-size="12">     </text>
</g>

<!-- Association EVENT4 -->
<g>
	<line x1="1000" y1="1000" x2="1300" y2="800" stroke="#66bd63" stroke-width="2"/>
	<line x1="1300" y1="650" x2="1300" y2="800" stroke="#66bd63" stroke-width="2"/>
	<g>
		<path d="M1314 775 a14 14 90 0 1 14 14 V800 h-56 V789 a14 14 90 0 1 14 -14" fill="#a6d96a" stroke="#a6d96a" stroke-width="0"/>
		<path d="M1328 800 v11 a14 14 90 0 1 -14 14 H1286 a14 14 90 0 1 -14 -14 V800 H56" fill="#d9ef8b" stroke="#d9ef8b" stroke-width="0"/>
		<rect x="1272" y="775" width="56" height="50" fill="none" rx="14" stroke="#66bd63" stroke-width="2"/>
		<line x1="1272" y1="800" x2="1328" y2="800" stroke="#66bd63" stroke-width="1"/>
		<text x="1280" y="792.75" fill="#000000" font-family="Verdana" font-size="12">EVENT</text>
	</g>
	<text x="1003.61" y="975" fill="#d73027" font-family="Verdana" font-size="12">     </text>
	<text x="1305" y="709" fill="#d73027" font-family="Verdana" font-size="12">     </text>
</g>

<!-- Association STRUCT1 -->
<g>
	<line x1="1000" y1="1000" x2="1500" y2="800" stroke="#66bd63" stroke-width="2"/>
	<line x1="1500" y1="650" x2="1500" y2="800" stroke="#66bd63" stroke-width="2"/>
	<g>
		<path d="M1518 775 a14 14 90 0 1 14 14 V800 h-64 V789 a14 14 90 0 1 14 -14" fill="#a6d96a" stroke="#a6d96a" stroke-width="0"/>
		<path d="M1532 800 v11 a14 14 90 0 1 -14 14 H1482 a14 14 90 0 1 -14 -14 V800 H64" fill="#d9ef8b" stroke="#d9ef8b" stroke-width="0"/>
		<rect x="1468" y="775" width="64" height="50" fill="none" rx="14" stroke="#66bd63" stroke-width="2"/>
		<line x1="1468" y1="800" x2="1532" y2="800" stroke="#66bd63" stroke-width="1"/>
		<text x="1475" y="792.75" fill="#000000" font-family="Verdana" font-size="12">STRUCT</text>
	</g>
	<text x="1018.63" y="975" fill="#d73027" font-family="Verdana" font-size="12">     </text>
	<text x="1505" y="701" fill="#d73027" font-family="Verdana" font-size="12">     </text>
</g>

<!-- Association STRUCT2 -->
<g>
	<line x1="1000" y1="1000" x2="1650" y2="800" stroke="#66bd63" stroke-width="2"/>
	<line x1="1650" y1="650" x2="1650" y2="800" stroke="#66bd63" stroke-width="2"/>
	<g>
		<path d="M1668 775 a14 14 90 0 1 14 14 V800 h-64 V789 a14 14 90 0 1 14 -14" fill="#a6d96a" stroke="#a6d96a" stroke-width="0"/>
		<path d="M1682 800 v11 a14 14 90 0 1 -14 14 H1632 a14 14 90 0 1 -14 -14 V800 H64" fill="#d9ef8b" stroke="#d9ef8b" stroke-width="0"/>
		<rect x="1618" y="775" width="64" height="50" fill="none" rx="14" stroke="#66bd63" stroke-width="2"/>
		<line x1="1618" y1="800" x2="1682" y2="800" stroke="#66bd63" stroke-width="1"/>
		<text x="1625" y="792.75" fill="#000000" font-family="Verdana" font-size="12">STRUCT</text>
	</g>
	<text x="1049" y="1001.07" fill="#d73027" font-family="Verdana" font-size="12">     </text>
	<text x="1655" y="718" fill="#d73027" font-family="Verdana" font-size="12">     </text>
</g>

<!-- Association STRUCT3 -->
<g>
	<line x1="1000" y1="1000" x2="1800" y2="800" stroke="#66bd63" stroke-width="2"/>
	<line x1="1800" y1="650" x2="1800" y2="800" stroke="#66bd63" stroke-width="2"/>
	<g>
		<path d="M1818 775 a14 14 90 0 1 14 14 V800 h-64 V789 a14 14 90 0 1 14 -14" fill="#a6d96a" stroke="#a6d96a" stroke-width="0"/>
		<path d="M1832 800 v11 a14 14 90 0 1 -14 14 H1782 a14 14 90 0 1 -14 -14 V800 H64" fill="#d9ef8b" stroke="#d9ef8b" stroke-width="0"/>
		<rect x="1768" y="775" width="64" height="50" fill="none" rx="14" stroke="#66bd63" stroke-width="2"/>
		<line x1="1768" y1="800" x2="1832" y2="800" stroke="#66bd63" stroke-width="1"/>
		<text x="1775" y="792.75" fill="#000000" font-family="Verdana" font-size="12">STRUCT</text>
	</g>
	<text x="1049" y="1004.07" fill="#d73027" font-family="Verdana" font-size="12">     </text>
	<text x="1805" y="735" fill="#d73027" font-family="Verdana" font-size="12">     </text>
</g>

<!-- Association LIST1 -->
<g>
	<line x1="1000" y1="1000" x2="300" y2="1200" stroke="#66bd63" stroke-width="2"/>
	<line x1="300" y1="1300" x2="300" y2="1200" stroke="#66bd63" stroke-width="2"/>
	<g>
		<path d="M307 1175 a14 14 90 0 1 14 14 V1200 h-42 V1189 a14 14 90 0 1 14 -14" fill="#a6d96a" stroke="#a6d96a" stroke-width="0"/>
		<path d="M321 1200 v11 a14 14 90 0 1 -14 14 H293 a14 14 90 0 1 -14 -14 V1200 H42" fill="#d9ef8b" stroke="#d9ef8b" stroke-width="0"/>
		<rect x="279" y="1175" width="42" height="50" fill="none" rx="14" stroke="#66bd63" stroke-width="2"/>
		<line x1="279" y1="1200" x2="321" y2="1200" stroke="#66bd63" stroke-width="1"/>
		<text x="286" y="1192.75" fill="#000000" font-family="Verdana" font-size="12">LIST</text>
	</g>
	<text x="929" y="1006.79" fill="#d73027" font-family="Verdana" font-size="12">     </text>
	<text x="305" y="1267" fill="#d73027" font-family="Verdana" font-size="12">     </text>
</g>

<!-- Association LIST2 -->
<g>
	<line x1="1000" y1="1000" x2="450" y2="1200" stroke="#66bd63" stroke-width="2"/>
	<line x1="450" y1="1300" x2="450" y2="1200" stroke="#66bd63" stroke-width="2"/>
	<g>
		<path d="M457 1175 a14 14 90 0 1 14 14 V1200 h-42 V1189 a14 14 90 0 1 14 -14" fill="#a6d96a" stroke="#a6d96a" stroke-width="0"/>
		<path d="M471 1200 v11 a14 14 90 0 1 -14 14 H443 a14 14 90 0 1 -14 -14 V1200 H42" fill="#d9ef8b" stroke="#d9ef8b" stroke-width="0"/>
		<rect x="429" y="1175" width="42" height="50" fill="none" rx="14" stroke="#66bd63" stroke-width="2"/>
		<line x1="429" y1="1200" x2="471" y2="1200" stroke="#66bd63" stroke-width="1"/>
		<text x="436" y="1192.75" fill="#000000" font-family="Verdana" font-size="12">LIST</text>
	</g>
	<text x="929" y="1010.84" fill="#d73027" font-family="Verdana" font-size="12">     </text>
	<text x="455" y="1267" fill="#d73027" font-family="Verdana" font-size="12">     </text>
</g>

<!-- Association DF0 -->
<g>
	<line x1="1000" y1="1000" x2="1100" y2="1200" stroke="#66bd63" stroke-width="2"/>
	<line x1="1100" y1="1300" x2="1100" y2="1200" stroke="#66bd63" stroke-width="2"/>
	<g>
		<circle cx="1100" cy="1200" r="16" stroke="#66bd63" stroke-width="2" fill="#a6d96a"/>
		<text x="1091" y="1204" fill="#000000" font-family="Verdana" font-size="12">DF</text>
	</g>
	<text x="985.41" y="1034" fill="#d73027" font-family="Verdana" font-size="12">     </text>
	<text x="1105" y="1267" fill="#d73027" font-family="Verdana" font-size="12">     </text>
</g>

<!-- Association DF1 -->
<g>
	<line x1="1000" y1="1000" x2="1250" y2="1200" stroke="#66bd63" stroke-width="2"/>
	<line x1="1250" y1="1300" x2="1250" y2="1200" stroke="#66bd63" stroke-width="2"/>
	<g>
		<circle cx="1250" cy="1200" r="16" stroke="#66bd63" stroke-width="2" fill="#a6d96a"/>
		<text x="1241" y="1204" fill="#000000" font-family="Verdana" font-size="12">DF</text>
	</g>
	<text x="1000.22" y="1034" fill="#d73027" font-family="Verdana" font-size="12">     </text>
	<text x="1255" y="1267" fill="#d73027" font-family="Verdana" font-size="12">     </text>
</g>

<!-- Association DF2 -->
<g>
	<line x1="1000" y1="1000" x2="1450" y2="1200" stroke="#66bd63" stroke-width="2"/>
	<line x1="1450" y1="1300" x2="1450" y2="1200" stroke="#66bd63" stroke-width="2"/>
	<g>
		<circle cx="1450" cy="1200" r="16" stroke="#66bd63" stroke-width="2" fill="#a6d96a"/>
		<text x="1441" y="1204" fill="#000000" font-family="Verdana" font-size="12">DF</text>
	</g>
	<text x="1014.73" y="1034" fill="#d73027" font-family="Verdana" font-size="12">     </text>
	<text x="1455" y="1267" fill="#d73027" font-family="Verdana" font-size="12">     </text>
</g>

<!-- Association DF3 -->
<g>
	<line x1="1000" y1="1000" x2="1600" y2="1200" stroke="#66bd63" stroke-width="2"/>
	<line x1="1600" y1="1300" x2="1600" y2="1200" stroke="#66bd63" stroke-width="2"/>
	<g>
		<circle cx="1600" cy="1200" r="16" stroke="#66bd63" stroke-width="2" fill="#a6d96a"/>
		<text x="1591" y="1204" fill="#000000" font-family="Verdana" font-size="12">DF</text>
	</g>
	<text x="1049" y="1009.27" fill="#d73027" font-family="Verdana" font-size="12">     </text>
	<text x="1605" y="1267" fill="#d73027" font-family="Verdana" font-size="12">     </text>
</g>

<!-- Association DF4 -->
<g>
	<line x1="1000" y1="1000" x2="1750" y2="1200" stroke="#66bd63" stroke-width="2"/>
	<line x1="1750" y1="1300" x2="1750" y2="1200" stroke="#66bd63" stroke-width="2"/>
	<g>
		<circle cx="1750" cy="1200" r="16" stroke="#66bd63" stroke-width="2" fill="#a6d96a"/>
		<text x="1741" y="1204" fill="#000000" font-family="Verdana" font-size="12">DF</text>
	</g>
	<text x="1049" y="1005.79" fill="#d73027" font-family="Verdana" font-size="12">     </text>
	<text x="1755" y="1267" fill="#d73027" font-family="Verdana" font-size="12">     </text>
</g>

<!-- Entity TIPITSIMPLE -->
<g>
	<g>
		<rect x="956" y="983" width="88" height="25" fill="#fdae61" stroke="none" stroke-width="0" opacity="1"/>
		<rect x="956" y="1008" width="88" height="9" fill="#fee08b" stroke="none" stroke-width="0" opacity="1"/>
		<rect x="956" y="983" width="88" height="34" fill="none" stroke="#f46d43" stroke-width="2" opacity="1"/>
		<line x1="956" y1="1008" x2="1044" y2="1008" stroke="#f46d43" stroke-width="1"/>
	</g>
	<text x="961" y="1000.75" fill="#000000" font-family="Verdana" font-size="12">TIPITSIMPLE</text>
</g>

<!-- Entity FRIENDS -->
<g>
	<g>
		<rect x="267" y="625" width="66" height="25" fill="#fdae61" stroke="none" stroke-width="0" opacity="1"/>
		<rect x="267" y="650" width="66" height="25" fill="#fee08b" stroke="none" stroke-width="0" opacity="1"/>
		<rect x="267" y="625" width="66" height="50" fill="none" stroke="#f46d43" stroke-width="2" opacity="1"/>
		<line x1="267" y1="650" x2="333" y2="650" stroke="#f46d43" stroke-width="1"/>
	</g>
	<text x="273" y="642.75" fill="#000000" font-family="Verdana" font-size="12">FRIENDS</text>
	<text x="272" y="667.8" fill="#000000" font-family="Verdana" font-size="12">address</text>
	<line x1="272" y1="670" x2="320" y2="670" stroke="#000000" stroke-width="1"/>
</g>

<!-- Entity ISFRIENDS -->
<g>
	<g>
		<rect x="460" y="625" width="80" height="25" fill="#fdae61" stroke="none" stroke-width="0" opacity="1"/>
		<rect x="460" y="650" width="80" height="25" fill="#fee08b" stroke="none" stroke-width="0" opacity="1"/>
		<rect x="460" y="625" width="80" height="50" fill="none" stroke="#f46d43" stroke-width="2" opacity="1"/>
		<line x1="460" y1="650" x2="540" y2="650" stroke="#f46d43" stroke-width="1"/>
	</g>
	<text x="466" y="642.75" fill="#000000" font-family="Verdana" font-size="12">ISFRIENDS</text>
	<text x="465" y="667.8" fill="#000000" font-family="Verdana" font-size="12">bool</text>
	<line x1="465" y1="670" x2="491" y2="670" stroke="#000000" stroke-width="1"/>
</g>

<!-- Entity NEWTIP -->
<g>
	<g>
		<rect x="662" y="582" width="76" height="25" fill="#fdae61" stroke="none" stroke-width="0" opacity="1"/>
		<rect x="662" y="607" width="76" height="111" fill="#fee08b" stroke="none" stroke-width="0" opacity="1"/>
		<rect x="662" y="582" width="76" height="136" fill="none" stroke="#f46d43" stroke-width="2" opacity="1"/>
		<line x1="662" y1="607" x2="738" y2="607" stroke="#f46d43" stroke-width="1"/>
	</g>
	<text x="676" y="599.75" fill="#000000" font-family="Verdana" font-size="12">NEWTIP</text>
	<text x="667" y="624.8" fill="#000000" font-family="Verdana" font-size="12">from</text>
	<line x1="667" y1="627" x2="696" y2="627" stroke="#000000" stroke-width="1"/>
	<text x="667" y="641.8" fill="#000000" font-family="Verdana" font-size="12">to</text>
	<text x="667" y="658.8" fill="#000000" font-family="Verdana" font-size="12">timestamp</text>
	<text x="667" y="675.8" fill="#000000" font-family="Verdana" font-size="12">name</text>
	<text x="667" y="692.8" fill="#000000" font-family="Verdana" font-size="12">message</text>
	<text x="667" y="709.8" fill="#000000" font-family="Verdana" font-size="12">amount</text>
</g>

<!-- Entity TRANSACTIONDETAILS -->
<g>
	<g>
		<rect x="824" y="599" width="152" height="25" fill="#fdae61" stroke="none" stroke-width="0" opacity="1"/>
		<rect x="824" y="624" width="152" height="77" fill="#fee08b" stroke="none" stroke-width="0" opacity="1"/>
		<rect x="824" y="599" width="152" height="102" fill="none" stroke="#f46d43" stroke-width="2" opacity="1"/>
		<line x1="824" y1="624" x2="976" y2="624" stroke="#f46d43" stroke-width="1"/>
	</g>
	<text x="829" y="616.75" fill="#000000" font-family="Verdana" font-size="12">TRANSACTIONDETAILS</text>
	<text x="829" y="641.8" fill="#000000" font-family="Verdana" font-size="12">from</text>
	<line x1="829" y1="644" x2="858" y2="644" stroke="#000000" stroke-width="1"/>
	<text x="829" y="658.8" fill="#000000" font-family="Verdana" font-size="12">to</text>
	<text x="829" y="675.8" fill="#000000" font-family="Verdana" font-size="12">amount</text>
	<text x="829" y="692.8" fill="#000000" font-family="Verdana" font-size="12">timestamp</text>
</g>

<!-- Entity COMMISSIONRATECHANGED -->
<g>
	<g>
		<rect x="1007" y="625" width="186" height="25" fill="#fdae61" stroke="none" stroke-width="0" opacity="1"/>
		<rect x="1007" y="650" width="186" height="25" fill="#fee08b" stroke="none" stroke-width="0" opacity="1"/>
		<rect x="1007" y="625" width="186" height="50" fill="none" stroke="#f46d43" stroke-width="2" opacity="1"/>
		<line x1="1007" y1="650" x2="1193" y2="650" stroke="#f46d43" stroke-width="1"/>
	</g>
	<text x="1012" y="642.75" fill="#000000" font-family="Verdana" font-size="12">COMMISSIONRATECHANGED</text>
	<text x="1012" y="667.8" fill="#000000" font-family="Verdana" font-size="12">newrate</text>
	<line x1="1012" y1="670" x2="1062" y2="670" stroke="#000000" stroke-width="1"/>
</g>

<!-- Entity FRIENDADDED -->
<g>
	<g>
		<rect x="1249" y="608" width="102" height="25" fill="#fdae61" stroke="none" stroke-width="0" opacity="1"/>
		<rect x="1249" y="633" width="102" height="59" fill="#fee08b" stroke="none" stroke-width="0" opacity="1"/>
		<rect x="1249" y="608" width="102" height="84" fill="none" stroke="#f46d43" stroke-width="2" opacity="1"/>
		<line x1="1249" y1="633" x2="1351" y2="633" stroke="#f46d43" stroke-width="1"/>
	</g>
	<text x="1255" y="625.75" fill="#000000" font-family="Verdana" font-size="12">FRIENDADDED</text>
	<text x="1254" y="650.8" fill="#000000" font-family="Verdana" font-size="12">owner</text>
	<line x1="1254" y1="653" x2="1292" y2="653" stroke="#000000" stroke-width="1"/>
	<text x="1254" y="667.8" fill="#000000" font-family="Verdana" font-size="12">friendAddress</text>
	<text x="1254" y="684.8" fill="#000000" font-family="Verdana" font-size="12">friendName</text>
</g>

<!-- Entity FRIEND -->
<g>
	<g>
		<rect x="1471" y="616" width="58" height="25" fill="#fdae61" stroke="none" stroke-width="0" opacity="1"/>
		<rect x="1471" y="641" width="58" height="43" fill="#fee08b" stroke="none" stroke-width="0" opacity="1"/>
		<rect x="1471" y="616" width="58" height="68" fill="none" stroke="#f46d43" stroke-width="2" opacity="1"/>
		<line x1="1471" y1="641" x2="1529" y2="641" stroke="#f46d43" stroke-width="1"/>
	</g>
	<text x="1477" y="633.75" fill="#000000" font-family="Verdana" font-size="12">FRIEND</text>
	<text x="1476" y="658.8" fill="#000000" font-family="Verdana" font-size="12">addr</text>
	<line x1="1476" y1="661" x2="1504" y2="661" stroke="#000000" stroke-width="1"/>
	<text x="1476" y="675.8" fill="#000000" font-family="Verdana" font-size="12">name</text>
</g>

<!-- Entity TRANSACTION -->
<g>
	<g>
		<rect x="1600" y="599" width="100" height="25" fill="#fdae61" stroke="none" stroke-width="0" opacity="1"/>
		<rect x="1600" y="624" width="100" height="77" fill="#fee08b" stroke="none" stroke-width="0" opacity="1"/>
		<rect x="1600" y="599" width="100" height="102" fill="none" stroke="#f46d43" stroke-width="2" opacity="1"/>
		<line x1="1600" y1="624" x2="1700" y2="624" stroke="#f46d43" stroke-width="1"/>
	</g>
	<text x="1605" y="616.75" fill="#000000" font-family="Verdana" font-size="12">TRANSACTION</text>
	<text x="1605" y="641.8" fill="#000000" font-family="Verdana" font-size="12">from</text>
	<line x1="1605" y1="644" x2="1634" y2="644" stroke="#000000" stroke-width="1"/>
	<text x="1605" y="658.8" fill="#000000" font-family="Verdana" font-size="12">to</text>
	<text x="1605" y="675.8" fill="#000000" font-family="Verdana" font-size="12">amount</text>
	<text x="1605" y="692.8" fill="#000000" font-family="Verdana" font-size="12">timestamp</text>
</g>

<!-- Entity TIP -->
<g>
	<g>
		<rect x="1762" y="582" width="76" height="25" fill="#fdae61" stroke="none" stroke-width="0" opacity="1"/>
		<rect x="1762" y="607" width="76" height="111" fill="#fee08b" stroke="none" stroke-width="0" opacity="1"/>
		<rect x="1762" y="582" width="76" height="136" fill="none" stroke="#f46d43" stroke-width="2" opacity="1"/>
		<line x1="1762" y1="607" x2="1838" y2="607" stroke="#f46d43" stroke-width="1"/>
	</g>
	<text x="1790" y="599.75" fill="#000000" font-family="Verdana" font-size="12">TIP</text>
	<text x="1767" y="624.8" fill="#000000" font-family="Verdana" font-size="12">from</text>
	<line x1="1767" y1="627" x2="1796" y2="627" stroke="#000000" stroke-width="1"/>
	<text x="1767" y="641.8" fill="#000000" font-family="Verdana" font-size="12">to</text>
	<text x="1767" y="658.8" fill="#000000" font-family="Verdana" font-size="12">timestamp</text>
	<text x="1767" y="675.8" fill="#000000" font-family="Verdana" font-size="12">name</text>
	<text x="1767" y="692.8" fill="#000000" font-family="Verdana" font-size="12">message</text>
	<text x="1767" y="709.8" fill="#000000" font-family="Verdana" font-size="12">amount</text>
</g>

<!-- Entity TRANSACTIONS -->
<g>
	<g>
		<rect x="246" y="1275" width="108" height="25" fill="#fdae61" stroke="none" stroke-width="0" opacity="1"/>
		<rect x="246" y="1300" width="108" height="25" fill="#fee08b" stroke="none" stroke-width="0" opacity="1"/>
		<rect x="246" y="1275" width="108" height="50" fill="none" stroke="#f46d43" stroke-width="2" opacity="1"/>
		<line x1="246" y1="1300" x2="354" y2="1300" stroke="#f46d43" stroke-width="1"/>
	</g>
	<text x="251" y="1292.75" fill="#000000" font-family="Verdana" font-size="12">TRANSACTIONS</text>
	<text x="251" y="1317.8" fill="#000000" font-family="Verdana" font-size="12">transactions</text>
	<line x1="251" y1="1320" x2="325" y2="1320" stroke="#000000" stroke-width="1"/>
</g>

<!-- Entity TIPS -->
<g>
	<g>
		<rect x="408" y="1275" width="84" height="25" fill="#fdae61" stroke="none" stroke-width="0" opacity="1"/>
		<rect x="408" y="1300" width="84" height="25" fill="#fee08b" stroke="none" stroke-width="0" opacity="1"/>
		<rect x="408" y="1275" width="84" height="50" fill="none" stroke="#f46d43" stroke-width="2" opacity="1"/>
		<line x1="408" y1="1300" x2="492" y2="1300" stroke="#f46d43" stroke-width="1"/>
	</g>
	<text x="436" y="1292.75" fill="#000000" font-family="Verdana" font-size="12">TIPS</text>
	<text x="413" y="1317.8" fill="#000000" font-family="Verdana" font-size="12">transactions</text>
	<line x1="413" y1="1320" x2="487" y2="1320" stroke="#000000" stroke-width="1"/>
</g>

<!-- Entity OWNER -->
<g>
	<g>
		<rect x="1071" y="1275" width="58" height="25" fill="#fdae61" stroke="none" stroke-width="0" opacity="1"/>
		<rect x="1071" y="1300" width="58" height="25" fill="#fee08b" stroke="none" stroke-width="0" opacity="1"/>
		<rect x="1071" y="1275" width="58" height="50" fill="none" stroke="#f46d43" stroke-width="2" opacity="1"/>
		<line x1="1071" y1="1300" x2="1129" y2="1300" stroke="#f46d43" stroke-width="1"/>
	</g>
	<text x="1077" y="1292.75" fill="#000000" font-family="Verdana" font-size="12">OWNER</text>
	<text x="1076" y="1317.8" fill="#000000" font-family="Verdana" font-size="12">address</text>
	<line x1="1076" y1="1320" x2="1124" y2="1320" stroke="#000000" stroke-width="1"/>
</g>

<!-- Entity TOTALCOMMISSION -->
<g>
	<g>
		<rect x="1183" y="1275" width="134" height="25" fill="#fdae61" stroke="none" stroke-width="0" opacity="1"/>
		<rect x="1183" y="1300" width="134" height="25" fill="#fee08b" stroke="none" stroke-width="0" opacity="1"/>
		<rect x="1183" y="1275" width="134" height="50" fill="none" stroke="#f46d43" stroke-width="2" opacity="1"/>
		<line x1="1183" y1="1300" x2="1317" y2="1300" stroke="#f46d43" stroke-width="1"/>
	</g>
	<text x="1189" y="1292.75" fill="#000000" font-family="Verdana" font-size="12">TOTALCOMMISSION</text>
	<text x="1188" y="1317.8" fill="#000000" font-family="Verdana" font-size="12">uint256</text>
	<line x1="1188" y1="1320" x2="1235" y2="1320" stroke="#000000" stroke-width="1"/>
</g>

<!-- Entity COMMISSIONRATE -->
<g>
	<g>
		<rect x="1387" y="1275" width="126" height="25" fill="#fdae61" stroke="none" stroke-width="0" opacity="1"/>
		<rect x="1387" y="1300" width="126" height="25" fill="#fee08b" stroke="none" stroke-width="0" opacity="1"/>
		<rect x="1387" y="1275" width="126" height="50" fill="none" stroke="#f46d43" stroke-width="2" opacity="1"/>
		<line x1="1387" y1="1300" x2="1513" y2="1300" stroke="#f46d43" stroke-width="1"/>
	</g>
	<text x="1392" y="1292.75" fill="#000000" font-family="Verdana" font-size="12">COMMISSIONRATE</text>
	<text x="1392" y="1317.8" fill="#000000" font-family="Verdana" font-size="12">uint256</text>
	<line x1="1392" y1="1320" x2="1439" y2="1320" stroke="#000000" stroke-width="1"/>
</g>

<!-- Entity CONSTRUCTOR -->
<g>
	<g>
		<rect x="1548" y="1275" width="104" height="25" fill="#fdae61" stroke="none" stroke-width="0" opacity="1"/>
		<rect x="1548" y="1300" width="104" height="25" fill="#fee08b" stroke="none" stroke-width="0" opacity="1"/>
		<rect x="1548" y="1275" width="104" height="50" fill="none" stroke="#f46d43" stroke-width="2" opacity="1"/>
		<line x1="1548" y1="1300" x2="1652" y2="1300" stroke="#f46d43" stroke-width="1"/>
	</g>
	<text x="1553" y="1292.75" fill="#000000" font-family="Verdana" font-size="12">CONSTRUCTOR</text>
	<text x="1553" y="1317.8" fill="#000000" font-family="Verdana" font-size="12">payable</text>
	<line x1="1553" y1="1320" x2="1601" y2="1320" stroke="#000000" stroke-width="1"/>
</g>

<!-- Entity MODIFIER -->
<g>
	<g>
		<rect x="1712" y="1275" width="76" height="25" fill="#fdae61" stroke="none" stroke-width="0" opacity="1"/>
		<rect x="1712" y="1300" width="76" height="25" fill="#fee08b" stroke="none" stroke-width="0" opacity="1"/>
		<rect x="1712" y="1275" width="76" height="50" fill="none" stroke="#f46d43" stroke-width="2" opacity="1"/>
		<line x1="1712" y1="1300" x2="1788" y2="1300" stroke="#f46d43" stroke-width="1"/>
	</g>
	<text x="1719" y="1292.75" fill="#000000" font-family="Verdana" font-size="12">MODIFIER</text>
	<text x="1717" y="1317.8" fill="#000000" font-family="Verdana" font-size="12">onlyOwner</text>
	<line x1="1717" y1="1320" x2="1782" y2="1320" stroke="#000000" stroke-width="1"/>
</g>
</svg>